HIERARCHY
ROOT SpineBase
{
  OFFSET 0.000000 0.000000 0.000000
  CHANNELS 6 Xposition Yposition Zposition Zrotation Xrotation Yrotation
  JOINT SpineMid
  {
    OFFSET 0.000000 27.240385 0.000000
    CHANNELS 3 Zrotation Xrotation Yrotation
    JOINT SpineShoulder
    {
      OFFSET -0.173535 20.482933 -0.610088
      CHANNELS 3 Zrotation Xrotation Yrotation
      JOINT Neck
      {
        OFFSET -0.108194 6.830964 -0.489501
        CHANNELS 3 Zrotation Xrotation Yrotation
        JOINT Head
        {
          OFFSET -2.917870 11.844401 1.431177
          CHANNELS 3 Zrotation Xrotation Yrotation
          End Site
          {
            OFFSET 0 0 0
          }
        }
      }
      JOINT ShoulderLeft
      {
        OFFSET -13.052231 -4.242873 4.286883
        CHANNELS 3 Zrotation Xrotation Yrotation
        JOINT ElbowLeft
        {
          OFFSET -0.482368 -23.422199 1.357860
          CHANNELS 3 Zrotation Xrotation Yrotation
          JOINT WristLeft
          {
            OFFSET -0.646996 -19.844248 -5.396897
            CHANNELS 3 Zrotation Xrotation Yrotation
            JOINT HandLeft
            {
              OFFSET 0.656255 -6.346531 -1.471796
              CHANNELS 3 Zrotation Xrotation Yrotation
              JOINT HandTipLeft
              {
                OFFSET 1.659327 -6.271110 -0.749021
                CHANNELS 3 Zrotation Xrotation Yrotation
                End Site
                {
                  OFFSET 0 0 0
                }
              }
              JOINT ThumbLeft
              {
                OFFSET 3.017807 1.660414 -3.674243
                CHANNELS 3 Zrotation Xrotation Yrotation
                End Site
                {
                  OFFSET 0 0 0
                }
              }
            }
          }
        }
      }
      JOINT ShoulderRight
      {
        OFFSET 11.606649 -2.770390 -6.936203
        CHANNELS 3 Zrotation Xrotation Yrotation
        JOINT ElbowRight
        {
          OFFSET 4.627499 -21.450813 -2.881349
          CHANNELS 3 Zrotation Xrotation Yrotation
          JOINT WristRight
          {
            OFFSET -0.540379 -19.710203 -7.054720
            CHANNELS 3 Zrotation Xrotation Yrotation
            JOINT HandRight
            {
              OFFSET -1.109699 -6.484127 -0.987436
              CHANNELS 3 Zrotation Xrotation Yrotation
              JOINT HandTipRight
              {
                OFFSET -0.348654 -5.673542 -1.288178
                CHANNELS 3 Zrotation Xrotation Yrotation
                End Site
                {
                  OFFSET 0 0 0
                }
              }
              JOINT ThumbRight
              {
                OFFSET -1.393810 -0.704974 -2.408425
                CHANNELS 3 Zrotation Xrotation Yrotation
                End Site
                {
                  OFFSET 0 0 0
                }
              }
            }
          }
        }
      }
    }
  }
  JOINT HipLeft
  {
    OFFSET -5.374759 0.329383 -1.297499
    CHANNELS 3 Zrotation Xrotation Yrotation
    JOINT KneeLeft
    {
      OFFSET 5.726955 -29.744672 1.153590
      CHANNELS 3 Zrotation Xrotation Yrotation
      JOINT AnkleLeft
      {
        OFFSET 5.630812 -31.478894 4.991958
        CHANNELS 3 Zrotation Xrotation Yrotation
        JOINT FootLeft
        {
          OFFSET -3.099834 -2.333211 -9.843379
          CHANNELS 3 Zrotation Xrotation Yrotation
          End Site
          {
            OFFSET 0 0 0
          }
        }
      }
    }
  }
  JOINT HipRight
  {
    OFFSET 4.887420 1.720729 -4.683059
    CHANNELS 3 Zrotation Xrotation Yrotation
    JOINT KneeRight
    {
      OFFSET 6.182984 -22.432168 -4.578769
      CHANNELS 3 Zrotation Xrotation Yrotation
      JOINT AnkleRight
      {
        OFFSET 8.117385 -40.304580 6.689454
        CHANNELS 3 Zrotation Xrotation Yrotation
        JOINT FootRight
        {
          OFFSET -3.607670 -1.819759 -9.158792
          CHANNELS 3 Zrotation Xrotation Yrotation
          End Site
          {
            OFFSET 0 0 0
          }
        }
      }
    }
  }
}
MOTION
Frames: 9
Frame Time: 0.033333
26.586280 67.047473 362.029830 2.593924 0.422799 12.461852 -0.225462 0.252624 -12.402076 -0.428061 0.100757 0.068650 -11.751410 -5.553387 -0.721822 0.000000 0.000000 0.000000 -1.328005 -5.124678 -0.006085 0.101232 4.994533 -0.356552 -0.662613 -0.590200 0.196276 -21.408088 -0.285320 2.587487 0.000000 0.000000 0.000000 0.000000 0.000000 0.000000 -0.455540 -0.998556 -0.389949 -1.236148 -0.705245 0.212438 -2.926818 0.698279 0.547102 3.298534 -0.656692 -0.540453 0.000000 0.000000 0.000000 0.000000 0.000000 0.000000 -3.355322 -0.396947 -12.625595 0.594740 0.690752 0.152361 1.582809 -0.725900 -5.967387 0.000000 0.000000 0.000000 -3.825161 -4.079492 -13.675882 -1.746485 5.213048 1.179935 42.055233 -42.236587 59.746522 0.000000 0.000000 0.000000
26.511815 67.042081 362.053409 2.439635 0.448598 12.296179 -0.473354 0.257171 -12.247557 -0.559964 0.049102 0.042065 -9.846660 -5.300220 -0.696553 0.000000 0.000000 0.000000 -0.857277 -5.629182 0.044366 -0.031691 5.642836 -0.302885 -1.963891 -0.794454 0.461365 -19.215675 0.802341 2.623155 0.000000 0.000000 0.000000 0.000000 0.000000 0.000000 -0.119168 -0.769148 -0.293238 -1.442945 -0.845996 0.291776 -3.450073 1.307801 0.467074 2.117090 -3.033855 -0.019546 0.000000 0.000000 0.000000 0.000000 0.000000 0.000000 -3.062019 -0.483277 -12.453665 0.447371 0.677154 0.145010 3.985204 -6.659489 -10.880380 0.000000 0.000000 0.000000 -3.353300 -3.300599 -13.270050 -1.688526 4.177166 0.910613 49.242089 -43.170388 68.876533 0.000000 0.000000 0.000000
26.436782 67.041522 362.069823 2.136235 0.389524 12.206337 -0.759550 0.235884 -12.172107 -0.656292 0.002586 0.010031 -7.438538 -4.456909 -0.528977 0.000000 0.000000 0.000000 -0.344374 -5.633872 0.085387 -0.116196 5.983214 -0.218384 -2.341075 -0.428947 0.593947 -19.341028 0.187182 2.270070 0.000000 0.000000 0.000000 0.000000 0.000000 0.000000 0.416125 -0.538017 -0.214157 -1.783389 -0.876389 0.431059 -3.490970 0.840340 0.441787 1.124854 -2.402432 0.125876 0.000000 0.000000 0.000000 0.000000 0.000000 0.000000 -2.170277 0.071115 -12.212253 -0.000000 0.000000 0.000000 5.540185 -11.622898 -14.404036 0.000000 0.000000 0.000000 -2.908666 -3.215074 -13.161439 -1.923950 3.995513 0.871605 42.606108 -42.373071 59.921651 0.000000 0.000000 0.000000
26.376953 67.026028 362.081177 1.765537 0.264354 12.277714 -1.781362 0.117198 -12.279965 -0.000000 0.000000 0.000000 -5.059549 -3.016702 -0.268679 0.000000 0.000000 0.000000 0.086982 -5.056143 0.112792 -0.185031 6.084321 -0.098947 -2.305100 -0.868303 0.542261 -19.745561 -0.172399 2.119812 0.000000 0.000000 0.000000 0.000000 0.000000 0.000000 0.892414 -0.056717 -0.131456 -2.004105 -0.900887 0.550030 -3.163294 0.767463 0.312608 -0.157816 -2.118831 0.382651 0.000000 0.000000 0.000000 0.000000 0.000000 0.000000 -1.781362 0.117198 -12.279965 -0.000000 0.000000 0.000000 5.359810 -9.585233 -16.012804 0.000000 0.000000 0.000000 -2.418586 -3.386473 -13.310683 -2.307439 4.069098 0.920053 44.183285 -42.920890 60.496715 0.000000 0.000000 0.000000
26.335175 66.995191 362.093453 1.344827 0.080132 12.314883 -1.330977 0.208538 -12.313402 -0.000000 0.000000 0.000000 -3.470136 -1.702424 -0.052049 0.000000 0.000000 0.000000 -0.210895 -4.768594 0.077067 -0.238565 6.131781 0.027845 -1.053181 -0.573517 0.331772 -20.158573 0.621979 2.649386 0.000000 0.000000 0.000000 0.000000 0.000000 0.000000 -0.000000 0.000000 0.000000 -1.582648 -0.934737 0.580688 -1.964869 0.549287 0.046884 -1.308240 -1.125069 0.545820 0.000000 0.000000 0.000000 0.000000 0.000000 0.000000 -1.330977 0.208538 -12.313402 -0.407452 -0.697585 -0.191814 7.133311 -16.121396 -15.763147 0.000000 0.000000 0.000000 -1.863826 -4.176617 -13.638346 -3.157279 4.914728 1.223608 53.440116 -44.287252 70.222014 0.000000 0.000000 0.000000
26.315714 66.984827 362.081484 0.955739 -0.094193 12.529868 -0.912551 0.299275 -12.526699 -1.060737 -0.381056 -0.085569 -1.215424 0.020514 0.274175 0.000000 0.000000 0.000000 0.586801 -4.013257 0.126145 -0.215880 6.046621 0.118178 0.175426 -0.260246 0.130201 -18.909031 1.678723 3.064880 0.000000 0.000000 0.000000 0.000000 0.000000 0.000000 1.060190 0.382574 0.078502 -2.046193 -1.108693 0.745258 -0.635172 0.761484 -0.272047 -2.444077 -0.006053 0.725493 0.000000 0.000000 0.000000 0.000000 0.000000 0.000000 -0.912551 0.299275 -12.526699 -0.357819 -0.709522 -0.185798 7.795294 -20.184473 -13.293052 0.000000 0.000000 0.000000 -1.405528 -4.663914 -14.043987 -3.806999 5.353547 1.398947 49.228804 -44.724522 62.147516 0.000000 0.000000 0.000000
26.308413 66.962755 362.067871 0.672445 -0.286027 12.669259 -1.398610 0.007222 -12.687947 -0.580494 -0.152558 -0.076085 -0.579302 1.747716 0.609042 0.000000 0.000000 0.000000 0.544120 -3.129645 0.116560 0.070820 5.697442 0.114789 0.879695 -0.934006 -0.062507 -19.653330 0.725880 2.820639 0.000000 0.000000 0.000000 0.000000 0.000000 0.000000 1.273052 0.740140 0.094757 -2.412463 -1.330676 0.875181 0.877125 0.600981 -0.547601 -2.534264 0.973806 0.603363 0.000000 0.000000 0.000000 0.000000 0.000000 0.000000 -0.593357 0.426525 -12.665372 -0.000000 0.000000 0.000000 5.990977 -16.942038 -5.722965 0.000000 0.000000 0.000000 -0.729379 -3.947348 -14.031010 -3.982992 4.420273 1.165720 43.532226 -43.664890 54.662161 0.000000 0.000000 0.000000
26.315018 66.928518 362.054035 0.517500 -0.470044 12.798242 -1.295817 -0.085937 -12.819089 -0.450368 -0.170950 -0.070039 -1.146321 3.037046 0.954088 0.000000 0.000000 0.000000 0.321212 -2.318475 0.098947 0.531130 5.340605 0.005559 0.330153 -2.010337 -0.018536 -18.906481 -1.198244 1.845791 0.000000 0.000000 0.000000 0.000000 0.000000 0.000000 1.175974 1.013478 0.089966 -2.827538 -1.728877 1.021775 2.069281 0.490912 -0.769018 -2.178092 0.386689 0.430404 0.000000 0.000000 0.000000 0.000000 0.000000 0.000000 -0.761861 -0.211769 -12.962657 0.176084 0.845805 0.168380 4.297721 -13.135478 -0.250847 0.000000 0.000000 0.000000 -0.438793 -4.220437 -14.304808 -4.548409 4.693021 1.296005 38.375831 -41.591877 48.897295 0.000000 0.000000 0.000000
26.322835 66.916739 362.006662 0.461135 -0.586169 13.339212 -1.118997 -0.168903 -13.357509 -0.306643 -0.144975 -0.054751 -2.455803 3.658400 1.241566 0.000000 0.000000 0.000000 -0.110711 -1.803658 0.070128 0.912355 5.114211 -0.065174 0.099484 -2.157292 0.045395 -18.641897 -1.884381 1.506789 0.000000 0.000000 0.000000 0.000000 0.000000 0.000000 1.715784 0.920478 -0.102347 -3.811656 -1.767122 1.255443 2.759411 1.032078 -0.982952 -1.522940 0.224862 0.267915 0.000000 0.000000 0.000000 0.000000 0.000000 0.000000 -0.861159 -0.223806 -13.538529 0.321661 1.003720 0.202875 4.957938 -14.256421 -3.060978 0.000000 0.000000 0.000000 -0.426356 -3.480781 -14.640609 -3.807581 3.979034 1.059866 32.974876 -38.993742 44.722339 0.000000 0.000000 0.000000
